<mxfile host="app.diagrams.net" modified="2023-12-21T20:36:05.470Z" agent="Mozilla/5.0 (X11; Linux x86_64) AppleWebKit/537.36 (KHTML, like Gecko) Chrome/118.0.0.0 Safari/537.36" etag="8qL2srummcWtFaVzudkG" version="22.1.11" type="device">
  <diagram name="Страница — 1" id="zrwqVJFZTkzh6_uZoULO">
    <mxGraphModel dx="3187" dy="1676" grid="1" gridSize="10" guides="1" tooltips="1" connect="1" arrows="1" fold="1" page="1" pageScale="1" pageWidth="827" pageHeight="1169" math="0" shadow="0">
      <root>
        <mxCell id="0" />
        <mxCell id="1" parent="0" />
        <mxCell id="P3gxR56Ehx_J4WlG6dWS-1" style="edgeStyle=orthogonalEdgeStyle;rounded=0;orthogonalLoop=1;jettySize=auto;html=1;exitX=0.5;exitY=1;exitDx=0;exitDy=0;entryX=0.5;entryY=0;entryDx=0;entryDy=0;strokeWidth=3;" edge="1" parent="1" source="P3gxR56Ehx_J4WlG6dWS-2" target="P3gxR56Ehx_J4WlG6dWS-11">
          <mxGeometry relative="1" as="geometry" />
        </mxCell>
        <mxCell id="P3gxR56Ehx_J4WlG6dWS-2" value="начало" style="rounded=1;whiteSpace=wrap;html=1;" vertex="1" parent="1">
          <mxGeometry x="384" y="20" width="60" height="30" as="geometry" />
        </mxCell>
        <mxCell id="P3gxR56Ehx_J4WlG6dWS-3" style="edgeStyle=orthogonalEdgeStyle;rounded=0;orthogonalLoop=1;jettySize=auto;html=1;exitX=0.5;exitY=1;exitDx=0;exitDy=0;entryX=0.5;entryY=0;entryDx=0;entryDy=0;strokeWidth=3;" edge="1" parent="1" source="P3gxR56Ehx_J4WlG6dWS-4" target="P3gxR56Ehx_J4WlG6dWS-9">
          <mxGeometry relative="1" as="geometry" />
        </mxCell>
        <mxCell id="P3gxR56Ehx_J4WlG6dWS-4" value="vector&amp;lt;double&amp;gt; out(F.size(), 0);&lt;br&gt;vector&amp;lt;double&amp;gt; TempX(F.size());&lt;br&gt;double norm = 1;" style="rounded=0;whiteSpace=wrap;html=1;" vertex="1" parent="1">
          <mxGeometry x="321" y="160" width="186" height="60" as="geometry" />
        </mxCell>
        <mxCell id="P3gxR56Ehx_J4WlG6dWS-5" style="edgeStyle=orthogonalEdgeStyle;rounded=0;orthogonalLoop=1;jettySize=auto;html=1;exitX=0.5;exitY=1;exitDx=0;exitDy=0;entryX=0.5;entryY=0;entryDx=0;entryDy=0;strokeWidth=3;" edge="1" parent="1" source="P3gxR56Ehx_J4WlG6dWS-9" target="P3gxR56Ehx_J4WlG6dWS-18">
          <mxGeometry relative="1" as="geometry" />
        </mxCell>
        <mxCell id="P3gxR56Ehx_J4WlG6dWS-6" value="&lt;font style=&quot;font-size: 15px;&quot;&gt;Да&lt;/font&gt;" style="edgeLabel;html=1;align=center;verticalAlign=middle;resizable=0;points=[];" vertex="1" connectable="0" parent="P3gxR56Ehx_J4WlG6dWS-5">
          <mxGeometry x="-0.2138" relative="1" as="geometry">
            <mxPoint as="offset" />
          </mxGeometry>
        </mxCell>
        <mxCell id="P3gxR56Ehx_J4WlG6dWS-216" style="edgeStyle=orthogonalEdgeStyle;rounded=0;orthogonalLoop=1;jettySize=auto;html=1;exitX=0;exitY=0.5;exitDx=0;exitDy=0;entryX=0.5;entryY=0;entryDx=0;entryDy=0;strokeWidth=3;" edge="1" parent="1" source="P3gxR56Ehx_J4WlG6dWS-9" target="P3gxR56Ehx_J4WlG6dWS-59">
          <mxGeometry relative="1" as="geometry">
            <Array as="points">
              <mxPoint x="40" y="280" />
              <mxPoint x="40" y="1460" />
              <mxPoint x="414" y="1460" />
            </Array>
          </mxGeometry>
        </mxCell>
        <mxCell id="P3gxR56Ehx_J4WlG6dWS-217" value="&lt;font style=&quot;font-size: 13px;&quot;&gt;Нет&lt;/font&gt;" style="edgeLabel;html=1;align=center;verticalAlign=middle;resizable=0;points=[];" vertex="1" connectable="0" parent="P3gxR56Ehx_J4WlG6dWS-216">
          <mxGeometry x="-0.976" y="1" relative="1" as="geometry">
            <mxPoint as="offset" />
          </mxGeometry>
        </mxCell>
        <mxCell id="P3gxR56Ehx_J4WlG6dWS-9" value="norm &amp;gt; eps" style="rhombus;whiteSpace=wrap;html=1;" vertex="1" parent="1">
          <mxGeometry x="346" y="250" width="136" height="60" as="geometry" />
        </mxCell>
        <mxCell id="P3gxR56Ehx_J4WlG6dWS-10" style="edgeStyle=orthogonalEdgeStyle;rounded=0;orthogonalLoop=1;jettySize=auto;html=1;exitX=0.5;exitY=1;exitDx=0;exitDy=0;entryX=0.5;entryY=0;entryDx=0;entryDy=0;strokeWidth=3;" edge="1" parent="1" source="P3gxR56Ehx_J4WlG6dWS-11" target="P3gxR56Ehx_J4WlG6dWS-4">
          <mxGeometry relative="1" as="geometry" />
        </mxCell>
        <mxCell id="P3gxR56Ehx_J4WlG6dWS-11" value="Ввод&lt;br&gt;vector&amp;lt;vector&amp;lt;double&amp;gt;&amp;gt; A&lt;br&gt;vector&amp;lt;double&amp;gt; F&lt;br&gt;&amp;nbsp;double eps" style="rounded=0;whiteSpace=wrap;html=1;" vertex="1" parent="1">
          <mxGeometry x="338" y="80" width="152" height="60" as="geometry" />
        </mxCell>
        <mxCell id="P3gxR56Ehx_J4WlG6dWS-207" style="edgeStyle=orthogonalEdgeStyle;rounded=0;orthogonalLoop=1;jettySize=auto;html=1;exitX=0.5;exitY=1;exitDx=0;exitDy=0;entryX=0.5;entryY=0;entryDx=0;entryDy=0;strokeWidth=3;" edge="1" parent="1" source="P3gxR56Ehx_J4WlG6dWS-18" target="P3gxR56Ehx_J4WlG6dWS-61">
          <mxGeometry relative="1" as="geometry" />
        </mxCell>
        <mxCell id="P3gxR56Ehx_J4WlG6dWS-18" value="int i = 0;" style="rounded=0;whiteSpace=wrap;html=1;" vertex="1" parent="1">
          <mxGeometry x="354" y="340" width="120" height="30" as="geometry" />
        </mxCell>
        <mxCell id="P3gxR56Ehx_J4WlG6dWS-206" value="" style="group" vertex="1" connectable="0" parent="1">
          <mxGeometry x="67" y="400" width="740" height="1700" as="geometry" />
        </mxCell>
        <mxCell id="P3gxR56Ehx_J4WlG6dWS-210" style="edgeStyle=orthogonalEdgeStyle;rounded=0;orthogonalLoop=1;jettySize=auto;html=1;exitX=0.5;exitY=1;exitDx=0;exitDy=0;entryX=0.5;entryY=0;entryDx=0;entryDy=0;strokeWidth=3;" edge="1" parent="P3gxR56Ehx_J4WlG6dWS-206" source="P3gxR56Ehx_J4WlG6dWS-61" target="P3gxR56Ehx_J4WlG6dWS-209">
          <mxGeometry relative="1" as="geometry" />
        </mxCell>
        <mxCell id="P3gxR56Ehx_J4WlG6dWS-61" value="&lt;font style=&quot;font-size: 14px;&quot;&gt;parallel thread: shared (TempX), private(i), size=F.size()&lt;/font&gt;" style="swimlane;whiteSpace=wrap;html=1;" vertex="1" parent="P3gxR56Ehx_J4WlG6dWS-206">
          <mxGeometry width="694" height="520" as="geometry" />
        </mxCell>
        <mxCell id="P3gxR56Ehx_J4WlG6dWS-182" value="TempX[i] = (double)F[i];&lt;br&gt;int j = 0;" style="rounded=0;whiteSpace=wrap;html=1;" vertex="1" parent="P3gxR56Ehx_J4WlG6dWS-61">
          <mxGeometry x="279" y="70" width="136" height="30" as="geometry" />
        </mxCell>
        <mxCell id="P3gxR56Ehx_J4WlG6dWS-187" value="j &amp;lt;&amp;nbsp;F.size()" style="rhombus;whiteSpace=wrap;html=1;" vertex="1" parent="P3gxR56Ehx_J4WlG6dWS-61">
          <mxGeometry x="271.5" y="130" width="146" height="60" as="geometry" />
        </mxCell>
        <mxCell id="P3gxR56Ehx_J4WlG6dWS-192" value="i != j" style="rhombus;whiteSpace=wrap;html=1;" vertex="1" parent="P3gxR56Ehx_J4WlG6dWS-61">
          <mxGeometry x="276.5" y="260" width="136" height="50" as="geometry" />
        </mxCell>
        <mxCell id="P3gxR56Ehx_J4WlG6dWS-183" style="edgeStyle=orthogonalEdgeStyle;rounded=0;orthogonalLoop=1;jettySize=auto;html=1;exitX=0.5;exitY=1;exitDx=0;exitDy=0;entryX=0.5;entryY=0;entryDx=0;entryDy=0;strokeWidth=3;" edge="1" parent="P3gxR56Ehx_J4WlG6dWS-61" source="P3gxR56Ehx_J4WlG6dWS-187" target="P3gxR56Ehx_J4WlG6dWS-192">
          <mxGeometry relative="1" as="geometry" />
        </mxCell>
        <mxCell id="P3gxR56Ehx_J4WlG6dWS-184" value="&lt;font style=&quot;font-size: 15px;&quot;&gt;Да&lt;/font&gt;" style="edgeLabel;html=1;align=center;verticalAlign=middle;resizable=0;points=[];" vertex="1" connectable="0" parent="P3gxR56Ehx_J4WlG6dWS-183">
          <mxGeometry x="-0.0286" y="5" relative="1" as="geometry">
            <mxPoint as="offset" />
          </mxGeometry>
        </mxCell>
        <mxCell id="P3gxR56Ehx_J4WlG6dWS-194" value="TempX[i] -= (double)(A[i][j] * out[j]);" style="rounded=0;whiteSpace=wrap;html=1;" vertex="1" parent="P3gxR56Ehx_J4WlG6dWS-61">
          <mxGeometry x="247.5" y="350" width="194" height="30" as="geometry" />
        </mxCell>
        <mxCell id="P3gxR56Ehx_J4WlG6dWS-188" style="edgeStyle=orthogonalEdgeStyle;rounded=0;orthogonalLoop=1;jettySize=auto;html=1;exitX=0.5;exitY=1;exitDx=0;exitDy=0;entryX=0.5;entryY=0;entryDx=0;entryDy=0;strokeWidth=3;" edge="1" parent="P3gxR56Ehx_J4WlG6dWS-61" source="P3gxR56Ehx_J4WlG6dWS-192" target="P3gxR56Ehx_J4WlG6dWS-194">
          <mxGeometry relative="1" as="geometry" />
        </mxCell>
        <mxCell id="P3gxR56Ehx_J4WlG6dWS-189" value="&lt;font style=&quot;font-size: 15px;&quot;&gt;Да&lt;/font&gt;" style="edgeLabel;html=1;align=center;verticalAlign=middle;resizable=0;points=[];" vertex="1" connectable="0" parent="P3gxR56Ehx_J4WlG6dWS-188">
          <mxGeometry x="-0.3214" relative="1" as="geometry">
            <mxPoint as="offset" />
          </mxGeometry>
        </mxCell>
        <mxCell id="P3gxR56Ehx_J4WlG6dWS-196" value="TempX[i] /= (double)A[i][i];" style="rounded=0;whiteSpace=wrap;html=1;" vertex="1" parent="P3gxR56Ehx_J4WlG6dWS-61">
          <mxGeometry x="33" y="145" width="156" height="30" as="geometry" />
        </mxCell>
        <mxCell id="P3gxR56Ehx_J4WlG6dWS-185" style="edgeStyle=orthogonalEdgeStyle;rounded=0;orthogonalLoop=1;jettySize=auto;html=1;exitX=0;exitY=0.5;exitDx=0;exitDy=0;strokeWidth=3;entryX=1;entryY=0.5;entryDx=0;entryDy=0;" edge="1" parent="P3gxR56Ehx_J4WlG6dWS-61" source="P3gxR56Ehx_J4WlG6dWS-187" target="P3gxR56Ehx_J4WlG6dWS-196">
          <mxGeometry relative="1" as="geometry">
            <Array as="points">
              <mxPoint x="203" y="160" />
              <mxPoint x="203" y="160" />
            </Array>
            <mxPoint x="173" y="120" as="targetPoint" />
          </mxGeometry>
        </mxCell>
        <mxCell id="P3gxR56Ehx_J4WlG6dWS-186" value="&lt;font style=&quot;font-size: 15px;&quot;&gt;Нет&lt;/font&gt;" style="edgeLabel;html=1;align=center;verticalAlign=middle;resizable=0;points=[];" vertex="1" connectable="0" parent="P3gxR56Ehx_J4WlG6dWS-185">
          <mxGeometry x="-0.8915" y="-2" relative="1" as="geometry">
            <mxPoint as="offset" />
          </mxGeometry>
        </mxCell>
        <mxCell id="P3gxR56Ehx_J4WlG6dWS-197" style="edgeStyle=orthogonalEdgeStyle;rounded=0;orthogonalLoop=1;jettySize=auto;html=1;exitX=0.5;exitY=1;exitDx=0;exitDy=0;entryX=1;entryY=0.5;entryDx=0;entryDy=0;strokeWidth=3;" edge="1" parent="P3gxR56Ehx_J4WlG6dWS-61" source="P3gxR56Ehx_J4WlG6dWS-198" target="P3gxR56Ehx_J4WlG6dWS-187">
          <mxGeometry relative="1" as="geometry">
            <Array as="points">
              <mxPoint x="345" y="450" />
              <mxPoint x="471" y="450" />
              <mxPoint x="471" y="160" />
            </Array>
          </mxGeometry>
        </mxCell>
        <mxCell id="P3gxR56Ehx_J4WlG6dWS-198" value="j++;" style="rounded=0;whiteSpace=wrap;html=1;" vertex="1" parent="P3gxR56Ehx_J4WlG6dWS-61">
          <mxGeometry x="306.5" y="410" width="76" height="30" as="geometry" />
        </mxCell>
        <mxCell id="P3gxR56Ehx_J4WlG6dWS-190" style="edgeStyle=orthogonalEdgeStyle;rounded=0;orthogonalLoop=1;jettySize=auto;html=1;exitX=0;exitY=0.5;exitDx=0;exitDy=0;entryX=0;entryY=0.5;entryDx=0;entryDy=0;strokeWidth=3;" edge="1" parent="P3gxR56Ehx_J4WlG6dWS-61" source="P3gxR56Ehx_J4WlG6dWS-192" target="P3gxR56Ehx_J4WlG6dWS-198">
          <mxGeometry relative="1" as="geometry">
            <mxPoint x="300.5" y="455" as="targetPoint" />
            <Array as="points">
              <mxPoint x="221" y="285" />
              <mxPoint x="221" y="425" />
            </Array>
          </mxGeometry>
        </mxCell>
        <mxCell id="P3gxR56Ehx_J4WlG6dWS-191" value="&lt;font style=&quot;font-size: 15px;&quot;&gt;Нет&lt;/font&gt;" style="edgeLabel;html=1;align=center;verticalAlign=middle;resizable=0;points=[];" vertex="1" connectable="0" parent="P3gxR56Ehx_J4WlG6dWS-190">
          <mxGeometry x="-0.8459" y="-1" relative="1" as="geometry">
            <mxPoint as="offset" />
          </mxGeometry>
        </mxCell>
        <mxCell id="P3gxR56Ehx_J4WlG6dWS-193" style="edgeStyle=orthogonalEdgeStyle;rounded=0;orthogonalLoop=1;jettySize=auto;html=1;exitX=0.5;exitY=1;exitDx=0;exitDy=0;entryX=0.5;entryY=0;entryDx=0;entryDy=0;strokeWidth=3;" edge="1" parent="P3gxR56Ehx_J4WlG6dWS-61" source="P3gxR56Ehx_J4WlG6dWS-194" target="P3gxR56Ehx_J4WlG6dWS-198">
          <mxGeometry relative="1" as="geometry" />
        </mxCell>
        <mxCell id="P3gxR56Ehx_J4WlG6dWS-181" style="edgeStyle=orthogonalEdgeStyle;rounded=0;orthogonalLoop=1;jettySize=auto;html=1;exitX=0.5;exitY=1;exitDx=0;exitDy=0;entryX=0.5;entryY=0;entryDx=0;entryDy=0;strokeWidth=3;" edge="1" parent="P3gxR56Ehx_J4WlG6dWS-61" source="P3gxR56Ehx_J4WlG6dWS-182" target="P3gxR56Ehx_J4WlG6dWS-187">
          <mxGeometry relative="1" as="geometry" />
        </mxCell>
        <mxCell id="P3gxR56Ehx_J4WlG6dWS-212" style="edgeStyle=orthogonalEdgeStyle;rounded=0;orthogonalLoop=1;jettySize=auto;html=1;exitX=0.5;exitY=1;exitDx=0;exitDy=0;entryX=0.5;entryY=0;entryDx=0;entryDy=0;strokeWidth=3;" edge="1" parent="P3gxR56Ehx_J4WlG6dWS-206" source="P3gxR56Ehx_J4WlG6dWS-209" target="P3gxR56Ehx_J4WlG6dWS-211">
          <mxGeometry relative="1" as="geometry" />
        </mxCell>
        <mxCell id="P3gxR56Ehx_J4WlG6dWS-209" value="norm = fabs(out[0] - TempX[0]);" style="rounded=0;whiteSpace=wrap;html=1;" vertex="1" parent="P3gxR56Ehx_J4WlG6dWS-206">
          <mxGeometry x="257" y="550" width="179" height="30" as="geometry" />
        </mxCell>
        <mxCell id="P3gxR56Ehx_J4WlG6dWS-211" value="&lt;font style=&quot;font-size: 14px;&quot;&gt;parallel thread: shared (norm, out), private(i), size=F.size()&lt;/font&gt;" style="swimlane;whiteSpace=wrap;html=1;" vertex="1" parent="P3gxR56Ehx_J4WlG6dWS-206">
          <mxGeometry x="117" y="610" width="460" height="400" as="geometry" />
        </mxCell>
        <mxCell id="P3gxR56Ehx_J4WlG6dWS-52" value="|out[i] - TempX[i]| &amp;gt; norm" style="rhombus;whiteSpace=wrap;html=1;fontSize=16;" vertex="1" parent="P3gxR56Ehx_J4WlG6dWS-211">
          <mxGeometry x="113" y="70" width="256" height="50" as="geometry" />
        </mxCell>
        <mxCell id="P3gxR56Ehx_J4WlG6dWS-53" style="edgeStyle=none;curved=1;rounded=0;orthogonalLoop=1;jettySize=auto;html=1;entryX=0.5;entryY=0;entryDx=0;entryDy=0;fontSize=12;startSize=8;endSize=8;" edge="1" parent="P3gxR56Ehx_J4WlG6dWS-211" source="P3gxR56Ehx_J4WlG6dWS-52" target="P3gxR56Ehx_J4WlG6dWS-52">
          <mxGeometry relative="1" as="geometry" />
        </mxCell>
        <mxCell id="P3gxR56Ehx_J4WlG6dWS-55" value="norm = fabs(out[i] - TempX[i]);" style="rounded=0;whiteSpace=wrap;html=1;fontSize=16;" vertex="1" parent="P3gxR56Ehx_J4WlG6dWS-211">
          <mxGeometry x="127.5" y="190" width="226" height="30" as="geometry" />
        </mxCell>
        <mxCell id="P3gxR56Ehx_J4WlG6dWS-48" style="edgeStyle=none;curved=1;rounded=0;orthogonalLoop=1;jettySize=auto;html=1;exitX=0.5;exitY=1;exitDx=0;exitDy=0;entryX=0.5;entryY=0;entryDx=0;entryDy=0;fontSize=12;startSize=8;endSize=8;strokeWidth=3;" edge="1" parent="P3gxR56Ehx_J4WlG6dWS-211" source="P3gxR56Ehx_J4WlG6dWS-52" target="P3gxR56Ehx_J4WlG6dWS-55">
          <mxGeometry relative="1" as="geometry" />
        </mxCell>
        <mxCell id="P3gxR56Ehx_J4WlG6dWS-49" value="&lt;font style=&quot;font-size: 15px;&quot;&gt;Да&lt;/font&gt;" style="edgeLabel;html=1;align=center;verticalAlign=middle;resizable=0;points=[];fontSize=16;" vertex="1" connectable="0" parent="P3gxR56Ehx_J4WlG6dWS-48">
          <mxGeometry x="-0.457" y="-1" relative="1" as="geometry">
            <mxPoint as="offset" />
          </mxGeometry>
        </mxCell>
        <mxCell id="P3gxR56Ehx_J4WlG6dWS-57" value="out[i] = (double)TempX[i];&lt;br&gt;i++;" style="rounded=0;whiteSpace=wrap;html=1;" vertex="1" parent="P3gxR56Ehx_J4WlG6dWS-211">
          <mxGeometry x="161.5" y="290" width="159" height="50" as="geometry" />
        </mxCell>
        <mxCell id="P3gxR56Ehx_J4WlG6dWS-54" style="edgeStyle=orthogonalEdgeStyle;rounded=0;orthogonalLoop=1;jettySize=auto;html=1;exitX=0.5;exitY=1;exitDx=0;exitDy=0;entryX=0.5;entryY=0;entryDx=0;entryDy=0;strokeWidth=3;" edge="1" parent="P3gxR56Ehx_J4WlG6dWS-211" source="P3gxR56Ehx_J4WlG6dWS-55" target="P3gxR56Ehx_J4WlG6dWS-57">
          <mxGeometry relative="1" as="geometry" />
        </mxCell>
        <mxCell id="P3gxR56Ehx_J4WlG6dWS-59" value="return out;" style="rounded=0;whiteSpace=wrap;html=1;" vertex="1" parent="P3gxR56Ehx_J4WlG6dWS-206">
          <mxGeometry x="304" y="1080" width="86" height="40" as="geometry" />
        </mxCell>
        <mxCell id="P3gxR56Ehx_J4WlG6dWS-60" value="конец" style="rounded=1;whiteSpace=wrap;html=1;" vertex="1" parent="P3gxR56Ehx_J4WlG6dWS-206">
          <mxGeometry x="309" y="1140" width="76" height="30" as="geometry" />
        </mxCell>
        <mxCell id="P3gxR56Ehx_J4WlG6dWS-58" style="edgeStyle=orthogonalEdgeStyle;rounded=0;orthogonalLoop=1;jettySize=auto;html=1;exitX=0.5;exitY=1;exitDx=0;exitDy=0;entryX=0.5;entryY=0;entryDx=0;entryDy=0;strokeWidth=3;" edge="1" parent="P3gxR56Ehx_J4WlG6dWS-206" source="P3gxR56Ehx_J4WlG6dWS-59" target="P3gxR56Ehx_J4WlG6dWS-60">
          <mxGeometry relative="1" as="geometry" />
        </mxCell>
        <mxCell id="P3gxR56Ehx_J4WlG6dWS-215" style="edgeStyle=orthogonalEdgeStyle;rounded=0;orthogonalLoop=1;jettySize=auto;html=1;exitX=0.5;exitY=1;exitDx=0;exitDy=0;entryX=1;entryY=0.5;entryDx=0;entryDy=0;strokeWidth=3;" edge="1" parent="1" source="P3gxR56Ehx_J4WlG6dWS-211" target="P3gxR56Ehx_J4WlG6dWS-9">
          <mxGeometry relative="1" as="geometry">
            <Array as="points">
              <mxPoint x="414" y="1430" />
              <mxPoint x="790" y="1430" />
              <mxPoint x="790" y="280" />
            </Array>
          </mxGeometry>
        </mxCell>
      </root>
    </mxGraphModel>
  </diagram>
</mxfile>
